# Blender 4.1.1
# www.blender.org
mtllib target.mtl
o Cylinder
v 0.064562 0.000000 -0.900000
v 0.290040 -0.000000 -0.763220
v 0.064562 -0.175581 -0.882707
v 0.290040 -0.148897 -0.748555
v 0.064562 -0.344415 -0.831492
v 0.290040 -0.292072 -0.705123
v 0.064562 -0.500013 -0.748323
v 0.290040 -0.424022 -0.634594
v 0.064562 -0.636396 -0.636396
v 0.290040 -0.539678 -0.539678
v 0.064562 -0.748323 -0.500013
v 0.290040 -0.634594 -0.424022
v 0.064562 -0.831492 -0.344415
v 0.290040 -0.705123 -0.292072
v 0.064562 -0.882707 -0.175581
v 0.290040 -0.748555 -0.148897
v 0.064562 -0.900000 0.000000
v 0.290040 -0.763220 0.000000
v 0.064562 -0.882707 0.175581
v 0.290040 -0.748555 0.148897
v 0.064562 -0.831492 0.344415
v 0.290040 -0.705123 0.292072
v 0.064562 -0.748323 0.500013
v 0.290040 -0.634594 0.424022
v 0.064562 -0.636396 0.636396
v 0.290040 -0.539678 0.539678
v 0.064562 -0.500013 0.748323
v 0.290040 -0.424022 0.634594
v 0.064562 -0.344415 0.831492
v 0.290040 -0.292072 0.705123
v 0.064562 -0.175581 0.882707
v 0.290040 -0.148897 0.748555
v 0.064562 0.000000 0.900000
v 0.290040 -0.000000 0.763220
v 0.064562 0.175581 0.882707
v 0.290040 0.148897 0.748555
v 0.064562 0.344415 0.831492
v 0.290040 0.292072 0.705123
v 0.064562 0.500013 0.748323
v 0.290040 0.424022 0.634594
v 0.064562 0.636396 0.636396
v 0.290040 0.539678 0.539678
v 0.064562 0.748323 0.500013
v 0.290040 0.634594 0.424022
v 0.064562 0.831492 0.344415
v 0.290040 0.705123 0.292072
v 0.064562 0.882707 0.175581
v 0.290040 0.748555 0.148897
v 0.064562 0.900000 0.000000
v 0.290040 0.763220 0.000000
v 0.064562 0.882707 -0.175581
v 0.290040 0.748555 -0.148897
v 0.064562 0.831492 -0.344415
v 0.290040 0.705123 -0.292072
v 0.064562 0.748323 -0.500013
v 0.290040 0.634594 -0.424022
v 0.064562 0.636396 -0.636396
v 0.290040 0.539678 -0.539678
v 0.064562 0.500013 -0.748323
v 0.290040 0.424022 -0.634594
v 0.064562 0.344415 -0.831492
v 0.290040 0.292072 -0.705123
v 0.064562 0.175581 -0.882707
v 0.290040 0.148897 -0.748555
v 0.290040 -0.175581 -0.882707
v 0.290040 -0.000000 -0.900000
v 0.290040 -0.344415 -0.831492
v 0.290040 -0.500013 -0.748323
v 0.290040 -0.636396 -0.636396
v 0.290040 -0.748323 -0.500013
v 0.290040 -0.831492 -0.344415
v 0.290040 -0.882707 -0.175581
v 0.290040 -0.900000 0.000000
v 0.290040 -0.882707 0.175581
v 0.290040 -0.831492 0.344415
v 0.290040 -0.748323 0.500013
v 0.290040 -0.636396 0.636396
v 0.290040 -0.500013 0.748323
v 0.290040 -0.344415 0.831492
v 0.290040 -0.175581 0.882707
v 0.290040 -0.000000 0.900000
v 0.290040 0.175581 0.882707
v 0.290040 0.344415 0.831492
v 0.290040 0.500013 0.748323
v 0.290040 0.636396 0.636396
v 0.290040 0.748323 0.500013
v 0.290040 0.831492 0.344415
v 0.290040 0.882707 0.175581
v 0.290040 0.900000 0.000000
v 0.290040 0.882707 -0.175581
v 0.290040 0.831492 -0.344415
v 0.290040 0.748323 -0.500013
v 0.290040 0.636396 -0.636396
v 0.290040 0.500013 -0.748323
v 0.290040 0.344415 -0.831492
v 0.290040 0.175581 -0.882707
v 0.136495 -0.104498 -0.525349
v 0.136495 0.000000 -0.535641
v 0.136495 -0.204981 -0.494868
v 0.136495 -0.297586 -0.445369
v 0.136495 -0.378755 -0.378755
v 0.136495 -0.445369 -0.297586
v 0.136495 -0.494868 -0.204981
v 0.136495 -0.525349 -0.104498
v 0.136495 -0.535641 0.000000
v 0.136495 -0.525349 0.104498
v 0.136495 -0.494868 0.204981
v 0.136495 -0.445369 0.297586
v 0.136495 -0.378755 0.378755
v 0.136495 -0.297586 0.445369
v 0.136495 -0.204981 0.494868
v 0.136495 -0.104498 0.525349
v 0.136495 0.000000 0.535641
v 0.136495 0.104498 0.525349
v 0.136495 0.204981 0.494868
v 0.136495 0.297586 0.445369
v 0.136495 0.378755 0.378755
v 0.136495 0.445369 0.297586
v 0.136495 0.494868 0.204981
v 0.136495 0.525349 0.104498
v 0.136495 0.535641 0.000000
v 0.136495 0.525349 -0.104498
v 0.136495 0.494868 -0.204981
v 0.136495 0.445369 -0.297586
v 0.136495 0.378755 -0.378755
v 0.136495 0.297586 -0.445369
v 0.136495 0.204981 -0.494868
v 0.136495 0.104498 -0.525349
v 0.136495 -0.148897 -0.748555
v 0.136495 0.000000 -0.763220
v 0.136495 -0.292072 -0.705123
v 0.136495 -0.424022 -0.634594
v 0.136495 -0.539678 -0.539678
v 0.136495 -0.634594 -0.424022
v 0.136495 -0.705123 -0.292072
v 0.136495 -0.748555 -0.148897
v 0.136495 -0.763220 0.000000
v 0.136495 -0.748555 0.148897
v 0.136495 -0.705123 0.292072
v 0.136495 -0.634594 0.424022
v 0.136495 -0.539678 0.539678
v 0.136495 -0.424022 0.634594
v 0.136495 -0.292072 0.705123
v 0.136495 -0.148897 0.748555
v 0.136495 0.000000 0.763220
v 0.136495 0.148897 0.748555
v 0.136495 0.292072 0.705123
v 0.136495 0.424022 0.634594
v 0.136495 0.539678 0.539678
v 0.136495 0.634594 0.424022
v 0.136495 0.705123 0.292072
v 0.136495 0.748555 0.148897
v 0.136495 0.763220 0.000000
v 0.136495 0.748555 -0.148897
v 0.136495 0.705123 -0.292072
v 0.136495 0.634594 -0.424022
v 0.136495 0.539678 -0.539678
v 0.136495 0.424022 -0.634594
v 0.136495 0.292072 -0.705123
v 0.136495 0.148897 -0.748555
v 0.248275 -0.104498 -0.525349
v 0.248275 -0.000000 -0.535641
v 0.248275 -0.204981 -0.494868
v 0.248275 -0.297586 -0.445369
v 0.248275 -0.378755 -0.378755
v 0.248275 -0.445369 -0.297586
v 0.248275 -0.494868 -0.204981
v 0.248275 -0.525349 -0.104498
v 0.248275 -0.535641 0.000000
v 0.248275 -0.525349 0.104498
v 0.248275 -0.494868 0.204981
v 0.248275 -0.445369 0.297586
v 0.248275 -0.378755 0.378755
v 0.248275 -0.297586 0.445369
v 0.248275 -0.204981 0.494868
v 0.248275 -0.104498 0.525349
v 0.248275 -0.000000 0.535641
v 0.248276 0.104498 0.525349
v 0.248276 0.204981 0.494868
v 0.248276 0.297586 0.445369
v 0.248276 0.378755 0.378755
v 0.248276 0.445369 0.297586
v 0.248276 0.494868 0.204981
v 0.248276 0.525349 0.104498
v 0.248276 0.535641 0.000000
v 0.248276 0.525349 -0.104498
v 0.248276 0.494868 -0.204981
v 0.248276 0.445369 -0.297586
v 0.248276 0.378755 -0.378755
v 0.248276 0.297586 -0.445369
v 0.248276 0.204981 -0.494868
v 0.248276 0.104498 -0.525349
vn -0.0000 -0.0980 -0.9952
vn -0.0000 -0.2903 -0.9569
vn -0.0000 -0.4714 -0.8819
vn -0.0000 -0.6344 -0.7730
vn -0.0000 -0.7730 -0.6344
vn -0.0000 -0.8819 -0.4714
vn -0.0000 -0.9569 -0.2903
vn -0.0000 -0.9952 -0.0980
vn -0.0000 -0.9952 0.0980
vn -0.0000 -0.9569 0.2903
vn -0.0000 -0.8819 0.4714
vn -0.0000 -0.7730 0.6344
vn -0.0000 -0.6344 0.7730
vn -0.0000 -0.4714 0.8819
vn -0.0000 -0.2903 0.9569
vn -0.0000 -0.0980 0.9952
vn -0.0000 0.0980 0.9952
vn -0.0000 0.2903 0.9569
vn -0.0000 0.4714 0.8819
vn -0.0000 0.6344 0.7730
vn -0.0000 0.7730 0.6344
vn -0.0000 0.8819 0.4714
vn -0.0000 0.9569 0.2903
vn -0.0000 0.9952 0.0980
vn -0.0000 0.9952 -0.0980
vn -0.0000 0.9569 -0.2903
vn -0.0000 0.8819 -0.4714
vn -0.0000 0.7730 -0.6344
vn -0.0000 0.6344 -0.7730
vn -0.0000 0.4714 -0.8819
vn -0.0000 0.2903 -0.9569
vn -0.0000 0.0980 -0.9952
vn -1.0000 -0.0000 -0.0000
vn 1.0000 -0.0000 -0.0000
vt 1.000000 0.500000
vt 1.000000 1.000000
vt 0.968750 1.000000
vt 0.968750 0.500000
vt 0.937500 1.000000
vt 0.937500 0.500000
vt 0.906250 1.000000
vt 0.906250 0.500000
vt 0.875000 1.000000
vt 0.875000 0.500000
vt 0.843750 1.000000
vt 0.843750 0.500000
vt 0.812500 1.000000
vt 0.812500 0.500000
vt 0.781250 1.000000
vt 0.781250 0.500000
vt 0.750000 1.000000
vt 0.750000 0.500000
vt 0.718750 1.000000
vt 0.718750 0.500000
vt 0.687500 1.000000
vt 0.687500 0.500000
vt 0.656250 1.000000
vt 0.656250 0.500000
vt 0.625000 1.000000
vt 0.625000 0.500000
vt 0.593750 1.000000
vt 0.593750 0.500000
vt 0.562500 1.000000
vt 0.562500 0.500000
vt 0.531250 1.000000
vt 0.531250 0.500000
vt 0.500000 1.000000
vt 0.500000 0.500000
vt 0.468750 1.000000
vt 0.468750 0.500000
vt 0.437500 1.000000
vt 0.437500 0.500000
vt 0.406250 1.000000
vt 0.406250 0.500000
vt 0.375000 1.000000
vt 0.375000 0.500000
vt 0.343750 1.000000
vt 0.343750 0.500000
vt 0.312500 1.000000
vt 0.312500 0.500000
vt 0.281250 1.000000
vt 0.281250 0.500000
vt 0.250000 1.000000
vt 0.250000 0.500000
vt 0.218750 1.000000
vt 0.218750 0.500000
vt 0.187500 1.000000
vt 0.187500 0.500000
vt 0.156250 1.000000
vt 0.156250 0.500000
vt 0.125000 1.000000
vt 0.125000 0.500000
vt 0.093750 1.000000
vt 0.093750 0.500000
vt 0.062500 1.000000
vt 0.062500 0.500000
vt 0.438033 0.172114
vt 0.449615 0.210294
vt 0.031250 1.000000
vt 0.031250 0.500000
vt 0.000000 1.000000
vt 0.000000 0.500000
vt 0.750000 0.490000
vt 0.796822 0.485388
vt 0.841844 0.471731
vt 0.883337 0.449553
vt 0.919706 0.419706
vt 0.949553 0.383337
vt 0.971731 0.341844
vt 0.985388 0.296822
vt 0.990000 0.250000
vt 0.985388 0.203178
vt 0.971731 0.158156
vt 0.949553 0.116663
vt 0.919706 0.080294
vt 0.883337 0.050447
vt 0.841844 0.028269
vt 0.796822 0.014612
vt 0.750000 0.010000
vt 0.703178 0.014612
vt 0.658156 0.028269
vt 0.616663 0.050447
vt 0.580294 0.080294
vt 0.550447 0.116663
vt 0.528269 0.158156
vt 0.514612 0.203178
vt 0.510000 0.250000
vt 0.514612 0.296822
vt 0.528269 0.341844
vt 0.550447 0.383337
vt 0.580294 0.419706
vt 0.616663 0.449553
vt 0.658156 0.471731
vt 0.703178 0.485388
vt 0.250000 0.453525
vt 0.289706 0.449615
vt 0.296822 0.485388
vt 0.250000 0.490000
vt 0.327886 0.438033
vt 0.341844 0.471731
vt 0.363073 0.419225
vt 0.383337 0.449553
vt 0.393914 0.393914
vt 0.419706 0.419706
vt 0.419225 0.363073
vt 0.449553 0.383337
vt 0.438033 0.327886
vt 0.471731 0.341844
vt 0.449615 0.289706
vt 0.485388 0.296822
vt 0.453525 0.250000
vt 0.490000 0.250000
vt 0.485388 0.203178
vt 0.471731 0.158156
vt 0.419225 0.136927
vt 0.449553 0.116663
vt 0.393914 0.106086
vt 0.419706 0.080294
vt 0.363073 0.080775
vt 0.383337 0.050447
vt 0.327886 0.061967
vt 0.341844 0.028269
vt 0.289706 0.050385
vt 0.296822 0.014612
vt 0.250000 0.046475
vt 0.250000 0.010000
vt 0.210294 0.050385
vt 0.203178 0.014612
vt 0.172114 0.061967
vt 0.158156 0.028269
vt 0.136927 0.080775
vt 0.116663 0.050447
vt 0.106086 0.106086
vt 0.080294 0.080294
vt 0.080775 0.136927
vt 0.050447 0.116663
vt 0.061967 0.172114
vt 0.028269 0.158156
vt 0.050385 0.210294
vt 0.014612 0.203178
vt 0.046475 0.250000
vt 0.010000 0.250000
vt 0.050385 0.289706
vt 0.014612 0.296822
vt 0.061967 0.327886
vt 0.028269 0.341844
vt 0.080775 0.363073
vt 0.050447 0.383337
vt 0.106086 0.393914
vt 0.080294 0.419706
vt 0.136927 0.419225
vt 0.116663 0.449553
vt 0.172114 0.438033
vt 0.158156 0.471731
vt 0.210294 0.449615
vt 0.203178 0.485388
vt 0.329356 0.131235
vt 0.351001 0.148999
vt 0.250000 0.392838
vt 0.277866 0.390093
vt 0.304662 0.381965
vt 0.329356 0.368765
vt 0.351001 0.351001
vt 0.368765 0.329356
vt 0.381965 0.304662
vt 0.390093 0.277866
vt 0.392838 0.250000
vt 0.390093 0.222134
vt 0.381965 0.195338
vt 0.368765 0.170644
vt 0.304662 0.118035
vt 0.277866 0.109907
vt 0.250000 0.107162
vt 0.222134 0.109907
vt 0.195338 0.118035
vt 0.170644 0.131235
vt 0.148999 0.148999
vt 0.131235 0.170644
vt 0.118035 0.195338
vt 0.109907 0.222134
vt 0.107162 0.250000
vt 0.109907 0.277866
vt 0.118035 0.304662
vt 0.131235 0.329356
vt 0.148999 0.351002
vt 0.170644 0.368765
vt 0.195338 0.381965
vt 0.222134 0.390093
s 0
f 1/1/1 66/2/1 65/3/1 3/4/1
f 3/4/2 65/3/2 67/5/2 5/6/2
f 5/6/3 67/5/3 68/7/3 7/8/3
f 7/8/4 68/7/4 69/9/4 9/10/4
f 9/10/5 69/9/5 70/11/5 11/12/5
f 11/12/6 70/11/6 71/13/6 13/14/6
f 13/14/7 71/13/7 72/15/7 15/16/7
f 15/16/8 72/15/8 73/17/8 17/18/8
f 17/18/9 73/17/9 74/19/9 19/20/9
f 19/20/10 74/19/10 75/21/10 21/22/10
f 21/22/11 75/21/11 76/23/11 23/24/11
f 23/24/12 76/23/12 77/25/12 25/26/12
f 25/26/13 77/25/13 78/27/13 27/28/13
f 27/28/14 78/27/14 79/29/14 29/30/14
f 29/30/15 79/29/15 80/31/15 31/32/15
f 31/32/16 80/31/16 81/33/16 33/34/16
f 33/34/17 81/33/17 82/35/17 35/36/17
f 35/36/18 82/35/18 83/37/18 37/38/18
f 37/38/19 83/37/19 84/39/19 39/40/19
f 39/40/20 84/39/20 85/41/20 41/42/20
f 41/42/21 85/41/21 86/43/21 43/44/21
f 43/44/22 86/43/22 87/45/22 45/46/22
f 45/46/23 87/45/23 88/47/23 47/48/23
f 47/48/24 88/47/24 89/49/24 49/50/24
f 49/50/25 89/49/25 90/51/25 51/52/25
f 51/52/26 90/51/26 91/53/26 53/54/26
f 53/54/27 91/53/27 92/55/27 55/56/27
f 55/56/28 92/55/28 93/57/28 57/58/28
f 57/58/29 93/57/29 94/59/29 59/60/29
f 59/60/30 94/59/30 95/61/30 61/62/30
f 22/63/26 20/64/26 138/64/26 139/63/26
f 61/62/31 95/61/31 96/65/31 63/66/31
f 63/66/32 96/65/32 66/67/32 1/68/32
f 1/69/33 3/70/33 5/71/33 7/72/33 9/73/33 11/74/33 13/75/33 15/76/33 17/77/33 19/78/33 21/79/33 23/80/33 25/81/33 27/82/33 29/83/33 31/84/33 33/85/33 35/86/33 37/87/33 39/88/33 41/89/33 43/90/33 45/91/33 47/92/33 49/93/33 51/94/33 53/95/33 55/96/33 57/97/33 59/98/33 61/99/33 63/100/33
f 2/101/34 4/102/34 65/103/34 66/104/34
f 4/102/34 6/105/34 67/106/34 65/103/34
f 6/105/34 8/107/34 68/108/34 67/106/34
f 8/107/34 10/109/34 69/110/34 68/108/34
f 10/109/34 12/111/34 70/112/34 69/110/34
f 12/111/34 14/113/34 71/114/34 70/112/34
f 14/113/34 16/115/34 72/116/34 71/114/34
f 16/115/34 18/117/34 73/118/34 72/116/34
f 18/117/34 20/64/34 74/119/34 73/118/34
f 20/64/34 22/63/34 75/120/34 74/119/34
f 22/63/34 24/121/34 76/122/34 75/120/34
f 24/121/34 26/123/34 77/124/34 76/122/34
f 26/123/34 28/125/34 78/126/34 77/124/34
f 28/125/34 30/127/34 79/128/34 78/126/34
f 30/127/34 32/129/34 80/130/34 79/128/34
f 32/129/34 34/131/34 81/132/34 80/130/34
f 34/131/34 36/133/34 82/134/34 81/132/34
f 36/133/34 38/135/34 83/136/34 82/134/34
f 38/135/34 40/137/34 84/138/34 83/136/34
f 40/137/34 42/139/34 85/140/34 84/138/34
f 42/139/34 44/141/34 86/142/34 85/140/34
f 44/141/34 46/143/34 87/144/34 86/142/34
f 46/143/34 48/145/34 88/146/34 87/144/34
f 48/145/34 50/147/34 89/148/34 88/146/34
f 50/147/34 52/149/34 90/150/34 89/148/34
f 52/149/34 54/151/34 91/152/34 90/150/34
f 54/151/34 56/153/34 92/154/34 91/152/34
f 56/153/34 58/155/34 93/156/34 92/154/34
f 58/155/34 60/157/34 94/158/34 93/156/34
f 60/157/34 62/159/34 95/160/34 94/158/34
f 62/159/34 64/161/34 96/162/34 95/160/34
f 64/161/34 2/101/34 66/104/34 96/162/34
f 110/163/13 109/164/13 173/164/13 174/163/13
f 50/147/8 48/145/8 152/145/8 153/147/8
f 24/121/27 22/63/27 139/63/27 140/121/27
f 52/149/9 50/147/9 153/147/9 154/149/9
f 26/123/28 24/121/28 140/121/28 141/123/28
f 54/151/10 52/149/10 154/149/10 155/151/10
f 28/125/29 26/123/29 141/123/29 142/125/29
f 56/153/11 54/151/11 155/151/11 156/153/11
f 30/127/30 28/125/30 142/125/30 143/127/30
f 4/102/17 2/101/17 130/101/17 129/102/17
f 58/155/12 56/153/12 156/153/12 157/155/12
f 32/129/31 30/127/31 143/127/31 144/129/31
f 6/105/18 4/102/18 129/102/18 131/105/18
f 60/157/13 58/155/13 157/155/13 158/157/13
f 34/131/32 32/129/32 144/129/32 145/131/32
f 8/107/19 6/105/19 131/105/19 132/107/19
f 62/159/14 60/157/14 158/157/14 159/159/14
f 36/133/1 34/131/1 145/131/1 146/133/1
f 10/109/20 8/107/20 132/107/20 133/109/20
f 64/161/15 62/159/15 159/159/15 160/161/15
f 38/135/2 36/133/2 146/133/2 147/135/2
f 12/111/21 10/109/21 133/109/21 134/111/21
f 2/101/16 64/161/16 160/161/16 130/101/16
f 40/137/3 38/135/3 147/135/3 148/137/3
f 14/113/22 12/111/22 134/111/22 135/113/22
f 42/139/4 40/137/4 148/137/4 149/139/4
f 16/115/23 14/113/23 135/113/23 136/115/23
f 44/141/5 42/139/5 149/139/5 150/141/5
f 18/117/24 16/115/24 136/115/24 137/117/24
f 46/143/6 44/141/6 150/141/6 151/143/6
f 20/64/25 18/117/25 137/117/25 138/64/25
f 48/145/7 46/143/7 151/143/7 152/145/7
f 98/165/34 97/166/34 129/102/34 130/101/34
f 97/166/34 99/167/34 131/105/34 129/102/34
f 99/167/34 100/168/34 132/107/34 131/105/34
f 100/168/34 101/169/34 133/109/34 132/107/34
f 101/169/34 102/170/34 134/111/34 133/109/34
f 102/170/34 103/171/34 135/113/34 134/111/34
f 103/171/34 104/172/34 136/115/34 135/113/34
f 104/172/34 105/173/34 137/117/34 136/115/34
f 105/173/34 106/174/34 138/64/34 137/117/34
f 106/174/34 107/175/34 139/63/34 138/64/34
f 107/175/34 108/176/34 140/121/34 139/63/34
f 108/176/34 109/164/34 141/123/34 140/121/34
f 109/164/34 110/163/34 142/125/34 141/123/34
f 110/163/34 111/177/34 143/127/34 142/125/34
f 111/177/34 112/178/34 144/129/34 143/127/34
f 112/178/34 113/179/34 145/131/34 144/129/34
f 113/179/34 114/180/34 146/133/34 145/131/34
f 114/180/34 115/181/34 147/135/34 146/133/34
f 115/181/34 116/182/34 148/137/34 147/135/34
f 116/182/34 117/183/34 149/139/34 148/137/34
f 117/183/34 118/184/34 150/141/34 149/139/34
f 118/184/34 119/185/34 151/143/34 150/141/34
f 119/185/34 120/186/34 152/145/34 151/143/34
f 120/186/34 121/187/34 153/147/34 152/145/34
f 121/187/34 122/188/34 154/149/34 153/147/34
f 122/188/34 123/189/34 155/151/34 154/149/34
f 123/189/34 124/190/34 156/153/34 155/151/34
f 124/190/34 125/191/34 157/155/34 156/153/34
f 125/191/34 126/192/34 158/157/34 157/155/34
f 126/192/34 127/193/34 159/159/34 158/157/34
f 127/193/34 128/194/34 160/161/34 159/159/34
f 128/194/34 98/165/34 130/101/34 160/161/34
f 161/166/34 162/165/34 192/194/34 191/193/34 190/192/34 189/191/34 188/190/34 187/189/34 186/188/34 185/187/34 184/186/34 183/185/34 182/184/34 181/183/34 180/182/34 179/181/34 178/180/34 177/179/34 176/178/34 175/177/34 174/163/34 173/164/34 172/176/34 171/175/34 170/174/34 169/173/34 168/172/34 167/171/34 166/170/34 165/169/34 164/168/34 163/167/34
f 124/190/27 123/189/27 187/189/27 188/190/27
f 111/177/14 110/163/14 174/163/14 175/177/14
f 97/166/1 98/165/1 162/165/1 161/166/1
f 125/191/28 124/190/28 188/190/28 189/191/28
f 112/178/15 111/177/15 175/177/15 176/178/15
f 99/167/2 97/166/2 161/166/2 163/167/2
f 126/192/29 125/191/29 189/191/29 190/192/29
f 113/179/16 112/178/16 176/178/16 177/179/16
f 100/168/3 99/167/3 163/167/3 164/168/3
f 127/193/30 126/192/30 190/192/30 191/193/30
f 114/180/17 113/179/17 177/179/17 178/180/17
f 101/169/4 100/168/4 164/168/4 165/169/4
f 128/194/31 127/193/31 191/193/31 192/194/31
f 115/181/18 114/180/18 178/180/18 179/181/18
f 102/170/5 101/169/5 165/169/5 166/170/5
f 98/165/32 128/194/32 192/194/32 162/165/32
f 116/182/19 115/181/19 179/181/19 180/182/19
f 103/171/6 102/170/6 166/170/6 167/171/6
f 117/183/20 116/182/20 180/182/20 181/183/20
f 104/172/7 103/171/7 167/171/7 168/172/7
f 118/184/21 117/183/21 181/183/21 182/184/21
f 105/173/8 104/172/8 168/172/8 169/173/8
f 119/185/22 118/184/22 182/184/22 183/185/22
f 106/174/9 105/173/9 169/173/9 170/174/9
f 120/186/23 119/185/23 183/185/23 184/186/23
f 107/175/10 106/174/10 170/174/10 171/175/10
f 121/187/24 120/186/24 184/186/24 185/187/24
f 108/176/11 107/175/11 171/175/11 172/176/11
f 122/188/25 121/187/25 185/187/25 186/188/25
f 109/164/12 108/176/12 172/176/12 173/164/12
f 123/189/26 122/188/26 186/188/26 187/189/26
